<?xml version="1.0" encoding="utf-8"?>
<!-- Generator: Adobe Illustrator 28.0.0, SVG Export Plug-In . SVG Version: 6.00 Build 0)  -->
<svg version="1.1" id="Layer_1" xmlns="http://www.w3.org/2000/svg" xmlns:xlink="http://www.w3.org/1999/xlink" x="0px" y="0px"
	 viewBox="0 0 1000 1000" style="enable-background:new 0 0 1000 1000;" xml:space="preserve">
<style type="text/css">
	.st0{fill:#2557D6;}
</style>
<path id="American_Express" class="st0" d="M738,365.5l-19.3,44.9h38.8L738,365.5z M514.7,393.4c3.6-1.8,5.8-5.8,5.8-10.7
	c0-4.8-2.3-8.3-5.9-10c-3.3-1.8-8.4-2-13.3-2h-34.6v25h34.2C506.3,395.7,510.8,395.6,514.7,393.4z M71.1,365.5L52,410.4h38.4
	L71.1,365.5z M961.8,653.3h-54.3v-24.2h54.1c5.4,0,9.1-0.7,11.4-2.8c2.1-1.9,3.3-4.6,3.3-7.3c0-3.3-1.4-5.9-3.4-7.5
	c-2-1.7-5-2.5-9.9-2.5c-26.4-0.9-59.3,0.8-59.3-34.9c0-16.3,10.8-33.6,40.3-33.6h56v-22.4h-52c-15.7,0-27.1,3.6-35.2,9.2v-9.2h-77
	c-12.3,0-26.7,2.9-33.6,9.2v-9.2H664.8v9.2c-10.9-7.6-29.4-9.2-37.9-9.2h-90.6v9.2c-8.7-8-27.9-9.2-39.6-9.2H395.2l-23.2,24.1
	l-21.7-24.1H198.7v157.3h148.7l23.9-24.5l22.5,24.5l91.6,0.1v-37h9c12.2,0.2,26.5-0.3,39.2-5.5v42.4h75.6v-41h3.6
	c4.7,0,5.1,0.2,5.1,4.6v36.3h229.6c14.6,0,29.8-3.6,38.3-10.1v10.1h72.8c15.2,0,30-2,41.2-7.2v-29.3
	C993.1,648.5,979.8,653.3,961.8,653.3L961.8,653.3z M495.7,616.2h-35.1V654h-54.6l-34.6-37.3l-36,37.3H224V541.3h113.1l34.6,36.9
	l35.8-36.9h89.8c22.3,0,47.4,5.9,47.4,37.1C544.6,609.7,520.2,616.2,495.7,616.2L495.7,616.2z M664.3,611.1c4,5.5,4.5,10.6,4.7,20.6
	V654h-28.2v-14.1c0-6.8,0.7-16.8-4.5-22.1c-4.1-4-10.4-5-20.6-5h-30V654h-28.2V541.3h64.9c14.2,0,24.6,0.6,33.8,5.3
	c8.9,5.1,14.5,12.2,14.5,25c0,18-12.5,27.2-19.9,30C656.8,603.8,661.9,607.8,664.3,611.1L664.3,611.1z M780.5,564.6h-65.8v20.5h64.2
	v23h-64.2v22.4l65.8,0.1V654h-93.8V541.3h93.8V564.6z M852.7,654h-54.8v-24.2h54.5c5.3,0,9.1-0.7,11.5-2.8c1.9-1.7,3.3-4.3,3.3-7.3
	c0-3.3-1.5-5.9-3.4-7.5c-2.2-1.7-5.1-2.5-10-2.5c-26.3-0.9-59.2,0.8-59.2-34.9c0-16.3,10.7-33.6,40.2-33.6h56.4v24h-51.6
	c-5.1,0-8.4,0.2-11.3,2c-3.1,1.8-4.2,4.5-4.2,8.1c0,4.3,2.6,7.1,6.2,8.4c3,1,6.2,1.3,10.9,1.3l15.1,0.4c15.3,0.3,25.7,2.9,32.1,9.1
	c5.5,5.4,8.4,12.3,8.4,23.9C896.9,642.7,881,654,852.7,654L852.7,654z M634.7,566.4c-3.4-1.9-8.4-2-13.4-2h-34.6v25.3h34.2
	c5.5,0,10.1-0.2,13.9-2.3c3.6-2.1,5.8-6,5.8-10.8C640.5,571.7,638.3,568.2,634.7,566.4L634.7,566.4z M948.8,564.3
	c-5.1,0-8.5,0.2-11.4,2c-3,1.8-4.1,4.5-4.1,8.1c0,4.2,2.5,7.1,6.1,8.4c3,1,6.1,1.3,10.8,1.3l15.2,0.4c15.4,0.4,25.6,2.9,31.9,9.1
	c1.1,0.9,1.8,1.8,2.6,2.8v-32.1L948.8,564.3L948.8,564.3z M496.6,564.3H460v28.7h36.3c10.8,0,17.5-5.1,17.5-14.9
	C513.8,568.3,506.8,564.3,496.6,564.3z M252,564.3v20.5h61.7v23H252v22.4h69.1l32.1-33.1l-30.7-32.8H252z M432.5,643.2v-90.4
	l-43.2,44.5L432.5,643.2L432.5,643.2z M254.4,462.2v19.4h234.9l-0.1-41.1h4.5c3.2,0.1,4.1,0.4,4.1,5.4v35.7h121.5v-9.6
	c9.8,5,25,9.6,45.1,9.6h51.1l10.9-25h24.2l10.7,25h98.5v-23.8l14.9,23.8h78.9V324.5h-78.1V343l-10.9-18.6h-80.1V343l-10-18.6H666.2
	c-18.1,0-34,2.4-46.9,9.2v-9.2h-74.7v9.2c-8.2-7-19.3-9.2-31.7-9.2H239.9l-18.3,40.6l-18.8-40.6h-86V343l-9.4-18.6H34L0,399.2V459
	l50.3-112.7h41.8L139.9,453V346.3h45.9l36.8,76.4l33.8-76.4h46.8V459h-28.8l-0.1-88.3L233.5,459h-24.7L168,370.6V459h-57.2
	L100,433.8H41.4L30.5,459H0v22.7h48l10.8-25h24.2l10.8,25h94.5v-19.1l8.4,19.2h49.1L254.4,462.2L254.4,462.2z M624.5,359.4
	c9.1-9,23.3-13.1,42.7-13.1h27.2v24.1h-26.6c-10.3,0-16.1,1.5-21.6,6.7c-4.8,4.7-8.1,13.7-8.1,25.5c0,12.1,2.5,20.8,7.7,26.5
	c4.3,4.5,12.2,5.8,19.6,5.8H678l39.6-88.6h42.1l47.6,106.6V346.3h42.8l49.4,78.5v-78.5h28.8V459h-39.8l-53.3-84.6V459h-57.3
	L767,433.8h-58.4L698,459h-32.9c-13.7,0-31-2.9-40.8-12.5c-9.9-9.6-15-22.5-15-43C609.3,386.8,612.4,371.5,624.5,359.4L624.5,359.4z
	 M566.6,346.3h28.7V459h-28.7V346.3z M437.3,346.3H502c14.4,0,25,0.4,34,5.4c8.9,5,14.2,12.4,14.2,24.9c0,18-12.5,27.2-19.8,30
	c6.1,2.2,11.4,6.2,13.9,9.5c4,5.6,4.7,10.6,4.7,20.7V459h-28.4l-0.1-14.2c0-6.8,0.7-16.5-4.4-22c-4.1-4-10.4-4.8-20.5-4.8h-30.2v41
	h-28.1L437.3,346.3L437.3,346.3z M324,346.3h93.9v23.5h-65.8v20.3h64.2v23.1h-64.2v22.5h65.8V459H324V346.3z"/>
</svg>
