<?xml version="1.0" encoding="utf-8"?>
<!-- Generator: Adobe Illustrator 28.0.0, SVG Export Plug-In . SVG Version: 6.00 Build 0)  -->
<svg version="1.1" id="Layer_1" xmlns="http://www.w3.org/2000/svg" xmlns:xlink="http://www.w3.org/1999/xlink" x="0px" y="0px"
	 viewBox="0 0 1000 1000" style="enable-background:new 0 0 1000 1000;" xml:space="preserve">
<style type="text/css">
	.st0{fill:#632CA6;}
</style>
<g id="Datadog">
	<path class="st0" d="M961.3,885.1c-164.8,20-322.6,39.2-484.5,58.9c-3.2-20.2-4.5-38.3-9.5-55.2c-2.2-7.5-11.8-12.7-18.1-19
		c-5.8,7-14.7,13.1-16.8,21.1c-5,18.5-4.2,38.8-10.4,56.7c-19.3,55.4-93.4,71-139.9,26.9c10.6,2.2,17.6,4.2,24.7,5.1
		c74.6,9.3,120.2-41.9,102.8-115.7C397,810.2,376.4,761.8,321.1,737c29.5-2,54.6,12,77.7,45.2c9,13,14.1,28.7,23.4,41.5
		c5.5,7.5,15.6,11.7,23.7,17.4c4.7-9.8,14.3-20.1,13.3-29.2c-6.5-59.9-15.6-119.6-23.3-179.4c-1.6-12.3-1.2-24.8-1.9-38.9
		c18.6-3.8,35.8-7.4,58.2-12c-22.9-20-41.5-36.3-60.1-52.5c77.1,37.2,153.1,90.6,225.2,4c13.8,6.3,25.6,16.8,34.2,14.6
		c16.9-4.3,40-11.8,46.3-24.8c20.4-42.1,19.5-86.3-9.2-126.1c-20-27.7-31.5-57-39.6-91.2c-9.3-38.8-37.2-73-54-103.8
		c-0.9-0.5,7.2,3.5,19.4,9.5c-6.2-34.6-11.7-65.2-16.7-92.8c20.9,31,41,64,65,94c7,8.8,25.1,8.7,38.1,12.7
		c0.4-12.8,6.2-29.2,0.4-37.9c-24-36.6-49.1-73-78.6-105.2c-19.7-21.6-52-18.8-65.3,5.6c-34.1,62.2-84.4,55.2-139.6,43.8
		c-11.8-2.4-26.9,2.1-38.2,7.9c-58.1,29.6-72.7,45.6-127-10.4c-10.6-10.9-35.8-15.6-51.7-11.9c-59.6,14-90.8,58.4-106.7,114.4
		c-2.7,9.7-0.5,24.3,5.4,32.3c17.9,24.5,36.9,48.8,58.9,69.7c20.2,19.1,45.4,25,72.1,9c28.5-17.1,41.4-42.5,37.8-74.5
		c-3-26.8-10.2-53.2-9.3-81.6c9.8,36.2,22.4,71.9,28.6,108.8c8.2,49.5-17.2,75.7-67.4,74.9c-12.2-0.2-24.4-2.3-45.7-4.4
		c8.9,44.9,13.5,86.5,26.4,125.4c5.8,17.4,27.4,30,42.6,43.8c36.3,32.7,45.1,85.3,16,123.3c-18.5,24.1-42.9,43.7-64.5,65.5
		c-15.2,15.3-32.5,29.2-44.7,46.6c-29.1,41.8-24.9,69.1,11.9,104.5c7.1,6.9,13.3,14.6,24.1,26.6c-31.7,5.3-57.9,9.6-88.5,14.7
		c-6.1-44.6-12.3-86.8-17.5-129.1C93.5,566.4,67.1,346,39.4,125.8c-3-24.2,4.1-32.8,27.1-35.4c222.7-25.2,445.4-50.9,668-76.5
		c36.9-4.3,73.7-9,114.2-13.9c7.2,73,14,141.9,20.8,210.8c8.5,86.1,16.2,172.3,26.1,258.3c1.4,12.6,13.1,24,27.4,32.9
		C935.6,628.6,948.3,755.3,961.3,885.1z M899.7,526c-72.8,13.6-139.8,25.4-206.5,38.8c-19.4,3.9-41.7,7.7-56.1,19.5
		c-29.8,24.3-60.7,26.8-96,20.4c-19.6-3.6-40.1-3.6-60.2-4c-21.5-0.3-29.3,8.9-25.7,32.2c7.7,50.5,11.9,101.6,18.1,152.4
		c5.4,44.7,11.5,89.4,17.3,133.6c7.1,0.9,10.5,2.1,13.6,1.5c134.2-23.8,268.4-47.4,402.2-72.9c8-1.5,18.8-18.8,18.4-28.3
		c-2.6-55.6-7.9-111.1-12.7-166.7C908.5,612.2,904.2,571.7,899.7,526z"/>
	<path class="st0" d="M501,327.2c-2.4,51.2-39.5,37.8-59.7,48.9c-2.2,1.2-22.2-19.1-24.6-31.3c-4.6-23.4,23.6-48.4,52.6-43.9
		C483,303,494.1,321.1,501,327.2z"/>
	<path class="st0" d="M659.9,493.9c-12.4-10.6-29.3-25.1-46.2-39.5c25-9.5,49.5-20.3,75.2-27.3c5.3-1.5,21.7,12.9,20.7,16.6
		C703.8,464.7,698.3,488.1,659.9,493.9z"/>
	<path class="st0" d="M676.4,330.3c-30.3,1.3-52.3-15.6-49-39c0.9-6.7,12.7-17.9,17.5-17C676.3,280.3,679.9,303.6,676.4,330.3z"/>
	<path class="st0" d="M813.5,712.7c20.5-42.7,38.6-80.5,60.7-126.6c7.7,81.9,14.7,155.2,22,232.5c-125.3,23.4-249.9,46.7-382.5,71.5
		c3.5-19.4,4.2-34.5,9.3-47.9c4.8-12.5,14.2-23.2,21.6-34.7c34.3-53,34.1-52.2,96.9-40.3c9.6,1.8,25.8-5.3,31.5-13.4
		c20.6-29.8,37.9-61.8,57.7-94.9C758.2,676.8,783.7,693.3,813.5,712.7z"/>
</g>
</svg>
