<svg width="81" height="59" viewBox="0 0 81 59" fill="none" xmlns="http://www.w3.org/2000/svg">
<path d="M80.9999 29.4933C81.0168 35.8809 78.931 42.0989 75.0603 47.1994C74.8471 47.4812 74.5801 47.7185 74.2747 47.8978C73.9692 48.0771 73.6311 48.1948 73.2798 48.2444C72.9285 48.2939 72.5709 48.2741 72.2272 48.1863C71.8836 48.0985 71.5608 47.9443 71.2771 47.7325C70.9935 47.5207 70.7546 47.2555 70.5742 46.952C70.3937 46.6485 70.2751 46.3127 70.2253 45.9637C70.1755 45.6146 70.1954 45.2593 70.2837 44.9179C70.3721 44.5765 70.5274 44.2558 70.7405 43.974C73.9089 39.8039 75.6157 34.7179 75.6002 29.4933C75.6002 23.0909 73.0402 16.9508 68.4834 12.4236C63.9265 7.89644 57.7461 5.35311 51.3018 5.35311C44.8574 5.35311 38.677 7.89644 34.1201 12.4236C29.5633 16.9508 27.0033 23.0909 27.0033 29.4933C27.0033 30.2046 26.7188 30.8869 26.2125 31.3899C25.7062 31.8929 25.0195 32.1755 24.3034 32.1755C23.5874 32.1755 22.9007 31.8929 22.3944 31.3899C21.8881 30.8869 21.6036 30.2046 21.6036 29.4933C21.6023 26.7865 21.9759 24.0924 22.7139 21.4868C22.3461 21.4465 21.9748 21.4465 21.6036 21.4465C17.3074 21.4465 13.1871 23.1421 10.1492 26.1602C7.1113 29.1783 5.40462 33.2717 5.40462 37.54C5.40462 41.8082 7.1113 45.9017 10.1492 48.9198C13.1871 51.9379 17.3074 53.6334 21.6036 53.6334H29.7031C30.4191 53.6334 31.1059 53.916 31.6122 54.419C32.1185 54.922 32.4029 55.6043 32.4029 56.3157C32.4029 57.027 32.1185 57.7093 31.6122 58.2123C31.1059 58.7153 30.4191 58.9979 29.7031 58.9979H21.6036C18.6344 58.9986 15.6969 58.391 12.9747 57.2132C10.2524 56.0353 7.80381 54.3125 5.78184 52.1523C3.75987 49.9921 2.20794 47.4409 1.22298 44.6581C0.238024 41.8752 -0.158808 38.9205 0.0572689 35.9784C0.273346 33.0364 1.09769 30.1702 2.47882 27.5589C3.85995 24.9475 5.7682 22.6472 8.08438 20.8014C10.4006 18.9557 13.0749 17.6042 15.9405 16.8315C18.806 16.0587 21.8011 15.8812 24.7388 16.3101C27.7302 10.3661 32.6538 5.59946 38.7122 2.78229C44.7705 -0.0348713 51.6088 -0.73759 58.1193 0.787961C64.6298 2.31351 70.4312 5.97798 74.5839 11.1878C78.7366 16.3977 80.9973 22.8477 80.9999 29.4933ZM57.4911 43.689L51.3018 49.8414V29.4933C51.3018 28.7819 51.0173 28.0997 50.511 27.5966C50.0047 27.0936 49.318 26.811 48.6019 26.811C47.8859 26.811 47.1992 27.0936 46.6929 27.5966C46.1865 28.0997 45.9021 28.7819 45.9021 29.4933V49.8414L39.7127 43.689C39.2061 43.1857 38.519 42.903 37.8026 42.903C37.0862 42.903 36.3991 43.1857 35.8925 43.689C35.3859 44.1923 35.1013 44.8749 35.1013 45.5867C35.1013 46.2985 35.3859 46.9811 35.8925 47.4844L46.6918 58.2133C46.9425 58.4627 47.2403 58.6606 47.5681 58.7955C47.8958 58.9305 48.2471 59 48.6019 59C48.9567 59 49.308 58.9305 49.6358 58.7955C49.9636 58.6606 50.2613 58.4627 50.5121 58.2133L61.3114 47.4844C61.818 46.9811 62.1026 46.2985 62.1026 45.5867C62.1026 44.8749 61.818 44.1923 61.3114 43.689C60.8048 43.1857 60.1177 42.903 59.4012 42.903C58.6848 42.903 57.9977 43.1857 57.4911 43.689Z" fill="#0403C7"/>
</svg>
