<?xml version="1.0" encoding="utf-8"?>
<!-- Generator: Adobe Illustrator 28.0.0, SVG Export Plug-In . SVG Version: 6.00 Build 0)  -->
<svg version="1.1" id="Layer_1" xmlns="http://www.w3.org/2000/svg" xmlns:xlink="http://www.w3.org/1999/xlink" x="0px" y="0px"
	 viewBox="0 0 1000 1000" style="enable-background:new 0 0 1000 1000;" xml:space="preserve">
<style type="text/css">
	.st0{fill:#0403C7;}
</style>
<path class="st0" d="M500,940c-3.5,0-6.9-0.9-10-2.7l-363.7-210c-6.2-3.6-10-10.2-10-17.3V290c0-7.1,3.8-13.7,10-17.3L490,62.7
	c6.2-3.6,13.8-3.6,20,0l363.7,210c6.2,3.6,10,10.2,10,17.3v420c0,7.1-3.8,13.7-10,17.3L510,937.3C506.9,939.1,503.5,940,500,940z
	 M156.3,698.5L500,896.9l343.7-198.5V301.5L500,103.1L156.3,301.5V698.5z"/>
<path class="st0" d="M500,820c-3.5,0-6.9-0.9-10-2.7l-259.8-150c-6.2-3.6-10-10.2-10-17.3V350.3c0-0.1,0-0.2,0-0.4
	c0-3.4,0.9-6.8,2.7-10c1.9-3.3,4.5-5.8,7.6-7.5L490,182.7c6.2-3.6,13.8-3.6,20,0l259.8,150c6.2,3.6,10,10.2,10,17.3v300
	c0,7.1-3.8,13.7-10,17.3L510,817.3C506.9,819.1,503.5,820,500,820z M520,511.5v253.8l219.8-126.9V384.6L520,511.5z M260.2,638.5
	L480,765.4V511.5L260.2,384.6V638.5z M280.2,350L500,476.9L719.8,350L500,223.1L280.2,350z"/>
</svg>
