<?xml version="1.0" encoding="utf-8"?>
<!-- Generator: Adobe Illustrator 28.0.0, SVG Export Plug-In . SVG Version: 6.00 Build 0)  -->
<svg version="1.1" id="Layer_1" xmlns="http://www.w3.org/2000/svg" xmlns:xlink="http://www.w3.org/1999/xlink" x="0px" y="0px"
	 viewBox="0 0 1000 1000" style="enable-background:new 0 0 1000 1000;" xml:space="preserve">
<style type="text/css">
	.st0{fill-rule:evenodd;clip-rule:evenodd;fill:#050038;}
	.st1{fill:#FFD02F;}
	.st2{fill:#050038;}
</style>
<g id="Miro">
	<path class="st0" d="M486.9,932.6l-55.3-13.2V696.8l55.3-10.5V932.6z M873.7,880.1c-40.1,0.1-72.6-32.2-72.9-72.3v-0.4
		c0-39.4,32.4-71.8,72.7-71.8c40.4,0,72.7,32.4,72.7,71.8c0.1,40.1-32.4,72.6-72.3,72.7H873.7z M999,807.4
		c0,69.3-56.1,125.4-125.4,125.4s-125.4-56.1-125.4-125.4c0-68.3,56.2-124.4,125.5-124.4S999,739.1,999,807.4z M287.8,919.6
		l54.4,11.3V781c0-71.9-56.1-97.2-94.7-97.2c-25.4,0-46.5,6.1-64.9,24.5c-19.3-18.4-42.1-25.4-60.5-25.4c-27.2,0-50,11.3-65.8,30.6
		V688L1,698.6v220.9l55.3,11.3V779.3c0-24.5,17.6-41.2,44.6-41.2c25.4,0,43.8,16.7,43.8,41.2v140.3l54.4,11.3V779.3
		c0-24.5,18.4-41.2,44.8-41.2c25.4,0,43.8,16.7,43.8,41.2L287.8,919.6z M707,683l-32.5,4.4c-60.5,14-99.9,33.3-99.9,99.9v132.3
		l55.3,10.5v-135c0-30.6,17.6-44.8,44.8-50l32.5-5.2L707,683z M434.3,591.7c-13.2,13.5-13.2,34.8,0,48.2c13.5,13.9,35.7,14,49.4,0.5
		l0.5-0.5c13.2-13.3,13.2-34.9,0-48.2C470.2,578.5,448.3,578.5,434.3,591.7z"/>
	<path class="st1" d="M372.4,67.2h255.1c53.8,0,97.5,43.7,97.5,97.5v255.1c0,53.8-43.7,97.5-97.5,97.5H372.4
		c-53.8,0-97.5-43.7-97.5-97.5V164.8C274.9,110.9,318.6,67.2,372.4,67.2z"/>
	<path class="st2" d="M578.3,123.5h-49.4l41.2,72.3l-90.6-72.3H430l45.3,88.5l-94.7-88.5h-49.4L380.6,236l-49.4,225.1h49.4
		l94.7-241.3L430,461.2h49.4L570,203.9l-41.2,257.2h49.4l90.6-281.5L578.3,123.5z"/>
</g>
</svg>
