<?xml version="1.0" encoding="utf-8"?>
<!-- Generator: Adobe Illustrator 28.0.0, SVG Export Plug-In . SVG Version: 6.00 Build 0)  -->
<svg version="1.1" id="Layer_1" xmlns="http://www.w3.org/2000/svg" xmlns:xlink="http://www.w3.org/1999/xlink" x="0px" y="0px"
	 viewBox="0 0 1000 1000" style="enable-background:new 0 0 1000 1000;" xml:space="preserve">
<style type="text/css">
	.st0{fill:#ED1C24;}
	.st1{fill:#FFD400;}
	.st2{fill:none;stroke:#ED1C24;stroke-width:0;stroke-miterlimit:10;}
</style>
<g id="Shell">
	<path class="st0" d="M449.2,850H264.7l-18.6-149L94.2,590.5c-4.5-17.3-6.7-35.1-6.7-53c0-29.9,6.3-59.4,18.5-86.6l269,271.9
		L113.4,400c10.3-41.9,33.1-79.6,65.3-108.2l234.4,404.5L205.4,253.5c26.9-35.8,64.3-62.1,107.1-75.3l143.3,502.1L351.1,157.4
		c31.9-18,67.8-27.4,104.4-27.4c7.7,0,15.5,0.4,23.2,1.3L500,675l21.3-543.7c7.7-0.9,15.4-1.3,23.2-1.3c36.6,0,72.5,9.5,104.4,27.4
		L544.2,680.3l143.3-502.1c42.7,13.2,80.2,39.6,107.1,75.3L586.9,696.3l234.4-404.5c32.2,28.6,55,66.4,65.3,108.2L625.1,722.8
		l269-271.9c12.2,27.3,18.5,56.8,18.5,86.6c0,17.9-2.3,35.7-6.7,53L753.9,701l-18.6,149H550.8l-27.3,19.8c-6.8,5-15.1,7.7-23.5,7.7
		c-8.5,0-16.7-2.7-23.5-7.7 M441.2,937.5H187.5L164,749.4L10.1,637.5C3.4,604.6,0,571.1,0,537.5c0-276,224-500,500-500
		s500,224,500,500c0,33.6-3.4,67.1-10.1,100L836,749.4l-23.5,188.1H558.8l-14.6,10.6c-12.8,9.3-28.3,14.4-44.1,14.4
		c-15.9,0-31.3-5-44.1-14.4L441.2,937.5z"/>
	<path class="st1" d="M449.2,846.3H264.7l-18.6-149L94.2,586.7c-4.5-17.3-6.7-35.1-6.7-53c0-29.9,6.3-59.4,18.5-86.6l269,271.9
		L113.4,396.3c10.3-41.9,33.1-79.6,65.3-108.2l234.4,404.5L205.4,249.7c26.9-35.8,64.3-62.1,107.1-75.3l143.3,502.1L351.1,153.7
		c31.9-18,67.8-27.4,104.4-27.4c7.7,0,15.5,0.4,23.2,1.3L500,671.2l21.3-543.7c7.7-0.9,15.4-1.3,23.2-1.3
		c36.6,0,72.5,9.5,104.4,27.4L544.2,676.5l143.3-502.1c42.7,13.2,80.2,39.6,107.1,75.3L586.9,692.6L821.3,288
		c32.2,28.6,55,66.4,65.3,108.2L625.1,719.1l269-271.9c12.2,27.3,18.5,56.8,18.5,86.6c0,17.9-2.3,35.7-6.7,53L753.9,697.2l-18.6,149
		H550.8l-27.3,19.8c-6.8,5-15.1,7.7-23.5,7.7c-8.5,0-16.7-2.7-23.5-7.7"/>
	<path class="st2" d="M449.2,846.3H264.7l-18.6-149L94.2,586.7c-4.5-17.3-6.7-35.1-6.7-53c0-29.9,6.3-59.4,18.5-86.6l269,271.9
		L113.4,396.3c10.3-41.9,33.1-79.6,65.3-108.2l234.4,404.5L205.4,249.7c26.9-35.8,64.3-62.1,107.1-75.3l143.3,502.1L351.1,153.7
		c31.9-18,67.8-27.4,104.4-27.4c7.7,0,15.5,0.4,23.2,1.3L500,671.2l21.3-543.7c7.7-0.9,15.4-1.3,23.2-1.3
		c36.6,0,72.5,9.5,104.4,27.4L544.2,676.5l143.3-502.1c42.7,13.2,80.2,39.6,107.1,75.3L586.9,692.6L821.3,288
		c32.2,28.6,55,66.4,65.3,108.2L625.1,719.1l269-271.9c12.2,27.3,18.5,56.8,18.5,86.6c0,17.9-2.3,35.7-6.7,53L753.9,697.2l-18.6,149
		H550.8l-27.3,19.8c-6.8,5-15.1,7.7-23.5,7.7c-8.5,0-16.7-2.7-23.5-7.7L449.2,846.3z"/>
</g>
</svg>
